<svg width="60" height="60" viewBox="0 0 60 60" fill="none" xmlns="http://www.w3.org/2000/svg">
<path d="M0 4C0 1.79086 1.79086 0 4 0H56C58.2091 0 60 1.79086 60 4C60 6.20914 58.2091 8 56 8H4C1.79086 8 0 6.20914 0 4Z" fill="#D9D9D9"/>
<path d="M15 30C15 27.7909 16.7909 26 19 26H56C58.2091 26 60 27.7909 60 30C60 32.2091 58.2091 34 56 34H19C16.7909 34 15 32.2091 15 30Z" fill="#D9D9D9"/>
<path d="M30 56C30 53.7909 31.7909 52 34 52H56C58.2091 52 60 53.7909 60 56C60 58.2091 58.2091 60 56 60H34C31.7909 60 30 58.2091 30 56Z" fill="#D9D9D9"/>
</svg>
